<?xml version="1.0" encoding="UTF-8"?>
<svg width="58px" height="58px" viewBox="0 0 58 58" version="1.1" xmlns="http://www.w3.org/2000/svg" xmlns:xlink="http://www.w3.org/1999/xlink">
    <!-- Generator: Sketch 53.1 (72631) - https://sketchapp.com -->
    <title>icon/cake_logo</title>
    <desc>Created with Sketch.</desc>
    <g id="icon/cake_logo" stroke="none" stroke-width="1" fill="none" fill-rule="evenodd">
        <g id="Group-8" transform="translate(1.207350, 0.199550)">
            <path d="M28.8235678,15.3689275 C21.3710962,15.3689275 15.327522,21.4121788 15.327522,28.8649087 C15.327522,30.3545248 15.5688388,31.7873795 16.0147937,33.1278273 L20.0510541,33.1278273 L20.0510541,21.7726365 L28.8235678,30.5452148 L37.5960815,21.7726365 L37.5960815,33.1278273 L41.6324711,33.1278273 C42.0786197,31.7873795 42.3200657,30.3545248 42.3200657,28.8649087 C42.3200657,21.4121788 36.2763623,15.3689275 28.8235678,15.3689275" id="Fill-1" fill="#00D6FE"></path>
            <path d="M26.8064192,32.5620858 L22.9778966,28.733434 L22.9778966,35.8785286 L21.5143688,35.8785286 L20.0509055,35.8785286 L17.2910346,35.8785286 C19.6602268,39.7653624 23.9392246,42.3610837 28.8233547,42.3610837 C33.7075494,42.3610837 37.9868055,39.7653624 40.3556748,35.8785286 L37.5956101,35.8785286 L34.9779979,35.8785286 L34.6690711,35.8785286 L34.6690711,28.733434 L30.8404194,32.5620858 L28.8233547,34.5788922 L26.8066129,32.5620858 L26.8064192,32.5620858 Z" id="Fill-3" fill="#00D6FE"></path>
            <path d="M40.9038197,40.7378878 L49.1481099,48.8859612 C43.9685492,54.1268682 36.7755399,57.3749907 28.8237744,57.3749907 C13.0422256,57.3749907 0.24933699,44.5819729 0.24933699,28.8005533 C0.24933699,13.0190691 13.0422256,0.22611582 28.8237744,0.22611582 C36.7755399,0.22611582 43.9685492,3.47417374 49.1481099,8.71514531 L40.9038197,16.8632188 C37.8248837,13.7481208 33.5499541,11.8173283 28.8237744,11.8173283 C19.4442557,11.8173283 11.8405495,19.4210345 11.8405495,28.8005533 C11.8405495,38.180072 19.4442557,45.7837783 28.8237744,45.7837783 C33.5499541,45.7837783 37.8248837,43.8529212 40.9038197,40.7378878" id="Fill-5" fill="#00BAFD"></path>
        </g>
    </g>
</svg>